<svg version="1.1" id="Layer_1" xmlns="http://www.w3.org/2000/svg" xmlns:xlink="http://www.w3.org/1999/xlink" x="0px" y="0px"
	 width="100%" viewBox="0 0 2560 1792" enable-background="new 0 0 2560 1792" xml:space="preserve">
<path fill="#009C2D" opacity="1.000000" stroke="none" 
	d="
M1812.000000,1794.000000 
	C1208.069092,1794.000000 605.138306,1794.000000 2.103728,1794.000000 
	C2.103728,1196.804321 2.103728,599.608643 2.103728,2.206481 
	C855.097778,2.206481 1708.195557,2.206481 2561.646729,2.206481 
	C2561.646729,599.333191 2561.646729,1196.666626 2561.646729,1794.000000 
	C2312.274658,1794.000000 2062.637451,1794.000000 1812.000000,1794.000000 
M1080.083496,1446.869019 
	C1147.733154,1490.063599 1215.382690,1533.258301 1283.553467,1576.785522 
	C1637.343018,1350.870117 1990.900757,1125.102783 2345.766357,898.500183 
	C1990.624146,671.723083 1637.175781,446.027527 1284.129883,220.588974 
	C1261.544067,232.342239 227.877274,893.674805 222.957809,899.544983 
	C508.283112,1081.744507 793.569702,1263.919189 1080.083496,1446.869019 
z"/>
<path fill="#FEE000" opacity="1.000000" stroke="none" 
	d="
M1079.469971,1446.481445 
	C793.569702,1263.919189 508.283112,1081.744507 222.957809,899.544983 
	C227.877274,893.674805 1261.544067,232.342239 1284.129883,220.588974 
	C1637.175781,446.027527 1990.624146,671.723083 2345.766357,898.500183 
	C1990.900757,1125.102783 1637.343018,1350.870117 1283.553467,1576.785522 
	C1215.382690,1533.258301 1147.733154,1490.063599 1079.469971,1446.481445 
M1727.503174,958.966309 
	C1734.492676,906.974854 1732.669067,855.252625 1721.523804,804.032227 
	C1671.338135,573.393677 1450.485596,416.994019 1210.439453,456.646790 
	C1087.983521,476.875092 990.605530,539.365112 917.799011,639.837402 
	C900.387146,663.865601 885.382568,689.403625 873.559448,718.166443 
	C863.583557,739.861511 855.527344,762.220032 849.681213,787.049866 
	C831.460144,857.371826 830.469727,928.104675 846.822510,998.715271 
	C901.434631,1234.527832 1131.300659,1383.947266 1368.488159,1338.332764 
	C1526.138306,1308.014404 1656.381958,1194.550659 1707.761597,1042.685669 
	C1709.024048,1038.953979 1709.570923,1034.980225 1711.583008,1030.064575 
	C1718.950928,1007.452881 1724.228760,984.381165 1727.503174,958.966309 
z"/>
<path fill="#002279" opacity="1.000000" stroke="none" 
	d="
M1710.451538,1031.119385 
	C1709.570923,1034.980225 1709.024048,1038.953979 1707.761597,1042.685669 
	C1656.381958,1194.550659 1526.138306,1308.014404 1368.488159,1338.332764 
	C1131.300659,1383.947266 901.434631,1234.527832 846.822510,998.715271 
	C830.469727,928.104675 831.460144,857.371826 850.770264,786.299744 
	C905.773376,776.004150 960.156738,771.125366 1014.856018,770.488403 
	C1089.032593,769.624634 1162.509399,776.591125 1235.221436,791.640259 
	C1378.169067,821.226074 1508.827637,878.757080 1626.873535,964.478027 
	C1655.675781,985.393250 1682.641479,1008.837769 1710.451538,1031.119385 
z"/>
<path fill="#012379" opacity="1.000000" stroke="none" 
	d="
M874.302063,717.073547 
	C885.382568,689.403625 900.387146,663.865601 917.799011,639.837402 
	C990.605530,539.365112 1087.983521,476.875092 1210.439453,456.646790 
	C1450.485596,416.994019 1671.338135,573.393677 1721.523804,804.032227 
	C1732.669067,855.252625 1734.492676,906.974854 1726.672241,959.448853 
	C1724.016357,958.494263 1722.169556,957.083862 1720.369629,955.616089 
	C1522.795776,794.526489 1296.454590,711.683533 1041.700684,706.499634 
	C985.649841,705.359009 929.853516,709.615540 874.302063,717.073547 
z"/>
<path fill="#FCFDFE" opacity="1.000000" stroke="none" 
	d="
M873.930786,717.619995 
	C929.853516,709.615540 985.649841,705.359009 1041.700684,706.499634 
	C1296.454590,711.683533 1522.795776,794.526489 1720.369629,955.616089 
	C1722.169556,957.083862 1724.016357,958.494263 1726.342529,960.327454 
	C1724.228760,984.381165 1718.950928,1007.452881 1711.017334,1030.592041 
	C1682.641479,1008.837769 1655.675781,985.393250 1626.873535,964.478027 
	C1508.827637,878.757080 1378.169067,821.226074 1235.221436,791.640259 
	C1162.509399,776.591125 1089.032593,769.624634 1014.856018,770.488403 
	C960.156738,771.125366 905.773376,776.004150 851.066528,785.548340 
	C855.527344,762.220032 863.583557,739.861511 873.930786,717.619995 
z"/>
</svg>