<svg id="visual" viewBox="0 0 1920 1080" width="1920" height="1080" xmlns="http://www.w3.org/2000/svg" xmlns:xlink="http://www.w3.org/1999/xlink" version="1.1"><rect x="0" y="0" width="1920" height="1080" fill="#f9f9f9"></rect><path d="M0 443L45.7 418.8C91.3 394.7 182.7 346.3 274.2 325.7C365.7 305 457.3 312 548.8 321.2C640.3 330.3 731.7 341.7 823 340C914.3 338.3 1005.7 323.7 1097 323.8C1188.3 324 1279.7 339 1371.2 351.3C1462.7 363.7 1554.3 373.3 1645.8 369.3C1737.3 365.3 1828.7 347.7 1874.3 338.8L1920 330L1920 0L1874.3 0C1828.7 0 1737.3 0 1645.8 0C1554.3 0 1462.7 0 1371.2 0C1279.7 0 1188.3 0 1097 0C1005.7 0 914.3 0 823 0C731.7 0 640.3 0 548.8 0C457.3 0 365.7 0 274.2 0C182.7 0 91.3 0 45.7 0L0 0Z" fill="#f7caca"></path><path d="M0 246L45.7 245.3C91.3 244.7 182.7 243.3 274.2 260.7C365.7 278 457.3 314 548.8 311.7C640.3 309.3 731.7 268.7 823 248.2C914.3 227.7 1005.7 227.3 1097 241.3C1188.3 255.3 1279.7 283.7 1371.2 306.8C1462.7 330 1554.3 348 1645.8 345.5C1737.3 343 1828.7 320 1874.3 308.5L1920 297L1920 0L1874.3 0C1828.7 0 1737.3 0 1645.8 0C1554.3 0 1462.7 0 1371.2 0C1279.7 0 1188.3 0 1097 0C1005.7 0 914.3 0 823 0C731.7 0 640.3 0 548.8 0C457.3 0 365.7 0 274.2 0C182.7 0 91.3 0 45.7 0L0 0Z" fill="#fcb4b2"></path><path d="M0 208L45.7 216.3C91.3 224.7 182.7 241.3 274.2 249.8C365.7 258.3 457.3 258.7 548.8 251.7C640.3 244.7 731.7 230.3 823 227.2C914.3 224 1005.7 232 1097 230.3C1188.3 228.7 1279.7 217.3 1371.2 222.3C1462.7 227.3 1554.3 248.7 1645.8 247.3C1737.3 246 1828.7 222 1874.3 210L1920 198L1920 0L1874.3 0C1828.7 0 1737.3 0 1645.8 0C1554.3 0 1462.7 0 1371.2 0C1279.7 0 1188.3 0 1097 0C1005.7 0 914.3 0 823 0C731.7 0 640.3 0 548.8 0C457.3 0 365.7 0 274.2 0C182.7 0 91.3 0 45.7 0L0 0Z" fill="#ff9d98"></path><path d="M0 145L45.7 148.8C91.3 152.7 182.7 160.3 274.2 168C365.7 175.7 457.3 183.3 548.8 188.3C640.3 193.3 731.7 195.7 823 196C914.3 196.3 1005.7 194.7 1097 191.8C1188.3 189 1279.7 185 1371.2 172C1462.7 159 1554.3 137 1645.8 133.3C1737.3 129.7 1828.7 144.3 1874.3 151.7L1920 159L1920 0L1874.3 0C1828.7 0 1737.3 0 1645.8 0C1554.3 0 1462.7 0 1371.2 0C1279.7 0 1188.3 0 1097 0C1005.7 0 914.3 0 823 0C731.7 0 640.3 0 548.8 0C457.3 0 365.7 0 274.2 0C182.7 0 91.3 0 45.7 0L0 0Z" fill="#ff867d"></path><path d="M0 127L45.7 123.3C91.3 119.7 182.7 112.3 274.2 107.7C365.7 103 457.3 101 548.8 105.2C640.3 109.3 731.7 119.7 823 119.5C914.3 119.3 1005.7 108.7 1097 109C1188.3 109.3 1279.7 120.7 1371.2 121.8C1462.7 123 1554.3 114 1645.8 112.2C1737.3 110.3 1828.7 115.7 1874.3 118.3L1920 121L1920 0L1874.3 0C1828.7 0 1737.3 0 1645.8 0C1554.3 0 1462.7 0 1371.2 0C1279.7 0 1188.3 0 1097 0C1005.7 0 914.3 0 823 0C731.7 0 640.3 0 548.8 0C457.3 0 365.7 0 274.2 0C182.7 0 91.3 0 45.7 0L0 0Z" fill="#ff6f61"></path></svg>